<svg width="99" height="108" viewBox="0 0 99 108" fill="none" xmlns="http://www.w3.org/2000/svg">
<g clip-path="url(#clip0_1_37)">
<path d="M59.9867 7.62939e-06C62.8613 0.0411124 65.7359 0.172989 68.6088 0.310003C71.4215 0.505249 74.241 0.303158 77.0553 0.250059C77.0295 1.18518 77.0708 2.12202 76.9899 3.05543C76.9296 4.01796 76.8022 5.00275 77.064 5.94815C77.7787 5.74948 78.4832 5.51656 79.2135 5.38639C80.3812 4.98734 81.4991 4.45812 82.6548 4.02652C83.9569 3.85354 85.0902 2.96295 86.4388 3.04858C86.8677 3.85354 87.8408 4.18066 88.1629 5.06098C88.6762 5.6707 89.3755 6.15539 89.7027 6.9141C90.8102 7.89205 91.5112 9.24335 92.6204 10.2196C92.9235 10.8978 93.4678 11.4219 94.0103 11.9134C94.3428 12.4307 94.6132 13.0095 95.1264 13.3863C95.5674 13.7049 95.7568 14.2221 96.0531 14.652C96.6094 15.1333 97.0968 15.6967 97.4482 16.3458C97.8874 16.8459 98.2164 17.4265 98.585 17.978C99.0328 18.5603 98.926 19.3379 99 20.0247C98.8485 21.2767 98.9828 22.5406 98.8347 23.7926C98.3765 28.821 97.865 33.8443 97.3759 38.8693C97.3362 40.1042 97.3965 41.339 97.3483 42.5721C96.8471 43.1322 96.165 43.521 95.7792 44.1803C95.6879 44.3739 95.4881 44.4527 95.3107 44.5451C94.5236 44.9185 93.9897 45.6687 93.1612 45.9735C91.7592 46.4976 90.5191 47.4464 89.0155 47.6845C87.362 48.2428 85.6879 48.8217 83.9379 48.9827C83.5659 48.969 83.0233 49.0975 82.8391 48.6727C82.5015 47.9928 81.9055 47.4653 81.7247 46.7117C81.2269 45.9513 80.6224 45.2525 80.2503 44.4116C79.7819 43.3839 78.8776 42.6235 78.4935 41.5531C78.118 41.0153 77.7598 40.4655 77.4136 39.9089C77.7891 39.8798 78.2145 40.0014 78.54 39.7479C78.8156 39.7359 79.0946 39.7325 79.3736 39.7291C79.7681 39.9911 80.1212 40.3268 80.3313 40.7567C80.5793 41.2842 81.146 41.5308 81.4939 41.9778C81.8125 42.3084 81.9486 42.7896 82.3568 43.0363C82.8787 43.4148 83.2386 43.9526 83.6469 44.439C84.4099 44.7027 84.7957 43.7864 85.0919 43.2606C85.6569 42.6578 86.2683 42.0241 86.4922 41.2071C86.6007 32.8784 86.4491 24.5325 85.5621 16.2431C85.4106 14.354 84.9662 12.494 84.9352 10.5981C84.8336 9.93699 84.6544 9.28788 84.6045 8.61994C84.279 8.33392 83.8794 7.99138 83.4109 8.12154C82.4911 8.30994 81.5938 8.62679 80.6448 8.59082C79.4391 8.86485 78.2162 9.10976 77.0674 9.5739C76.8814 10.5981 76.9761 11.6428 76.9554 12.679C76.9262 16.2756 77.0278 19.8688 76.9968 23.4672C76.9778 28.72 77.0743 33.9711 77.0381 39.2256C77.3981 46.8264 77.9751 54.4153 78.5073 62.0059C78.6003 62.9239 78.6038 63.8454 78.5865 64.7668C78.6141 65.0819 78.3075 65.2737 78.1559 65.5101C77.6702 64.789 77.2172 64.0372 76.9417 63.2082C76.5714 62.1772 75.8273 61.3346 75.4777 60.295C75.097 59.2639 74.446 58.3682 73.9844 57.3766C73.8621 67.1286 74.024 76.8857 73.8896 86.6394C73.1817 86.3397 72.8752 85.6272 72.4859 85.0261C72.2241 83.7399 71.1786 82.7945 70.7928 81.5528C70.5465 80.7975 69.9799 80.2066 69.6647 79.4821C69.5751 81.4757 69.3116 83.4624 69.2875 85.4594C69.3495 87.292 69.1014 89.1126 68.9843 90.9383C68.6381 95.2868 68.2868 99.6353 67.8424 103.975C67.6219 105.313 67.932 106.721 67.3773 108C66.9313 106.094 66.6832 104.146 66.2974 102.227C66.1252 101.507 66.2423 100.762 66.0925 100.043C65.6223 97.5184 65.1848 94.9871 64.7077 92.4626C64.5975 91.8563 64.6767 91.2329 64.5527 90.6283C64.0721 88.0233 63.5864 85.42 63.1145 82.815C63.1403 81.5014 62.7838 80.2306 62.5685 78.9461C62.2412 77.182 61.9106 75.4197 61.5816 73.6573C61.5127 73.0339 61.5575 72.4019 61.4162 71.7871C60.9943 69.5486 60.5705 67.3084 60.1537 65.0682C59.9109 64.1074 60.0366 63.1003 59.792 62.1378C60.0797 62.6482 60.4724 63.1038 60.9667 63.4292C61.4851 63.7203 61.6022 64.3729 62.0931 64.7C62.5823 65.0185 62.9853 65.4364 63.2867 65.9348C63.5313 65.9502 63.6295 65.8338 63.583 65.5837C63.4417 63.8676 63.0318 62.1721 63.0714 60.4423C62.646 57.2652 62.131 54.1019 61.6022 50.942C61.4851 50.346 61.5919 49.7312 61.4627 49.1368C60.9632 46.3178 60.4638 43.4884 59.8988 40.6882C58.1627 40.3354 56.3249 40.8543 54.6594 41.4212C54.1168 41.5565 53.6449 41.8922 53.0886 41.971C52.7923 42.0172 52.5047 42.1337 52.267 42.3152C52.0465 42.7948 52.1878 43.3463 52.1516 43.8549C52.1206 49.4468 52.2274 55.037 52.1964 60.6272C52.2756 66.3938 52.2222 72.1638 52.2377 77.9305C52.1499 80.3899 52.4444 82.9281 53.5536 85.1563C53.8981 86.0349 54.4286 86.9152 55.2639 87.4084C55.7376 87.8298 56.3439 88.0507 56.852 88.4206C56.9105 88.6792 56.9105 88.9516 56.864 89.2136C56.6057 89.4705 56.2181 89.5424 55.8702 89.4637C54.2632 89.1879 52.6545 88.83 51.0148 88.8762C45.8253 88.2699 40.5515 87.9959 35.3516 88.6604C35.0175 88.6262 35.0571 88.2614 34.9848 88.0284C34.9262 87.6996 34.6678 87.4615 34.4922 87.1943C35.1759 86.6514 35.9097 86.177 36.6555 85.7232C37.1584 85.1837 37.6785 84.6613 38.1815 84.1218C38.3933 83.5138 38.7275 82.9589 38.9927 82.3749C39.5043 80.8865 39.9056 79.328 39.8453 77.7438C40.5256 70.8588 40.4636 63.9259 40.2432 57.0186C40.1829 54.6037 39.99 52.1957 39.8315 49.7894C39.1649 50.2758 38.5242 50.805 37.8525 51.2794C37.1084 51.4147 36.5711 51.9713 35.889 52.2471C35.2293 52.5297 34.6334 52.9664 33.8911 52.9989C32.5717 53.5676 31.2076 54.0317 29.828 54.4256C29.1597 54.4462 28.5104 54.5917 27.8662 54.7613C27.954 62.8195 27.9851 70.8793 28.1108 78.9375C28.0453 79.7476 28.55 80.4087 28.8979 81.0921C29.8314 81.5682 30.4584 82.5752 31.5297 82.7739C31.6623 82.8715 31.7949 82.9726 31.9276 83.0736C31.9155 83.3528 31.9052 83.6337 31.8897 83.9146C29.4663 83.0719 26.8827 82.9092 24.3405 82.7277C21.409 82.7791 18.4827 82.5496 15.5513 82.5102C13.2157 82.4451 10.8785 82.4091 8.53951 82.4194C8.52228 82.0203 8.49645 81.623 8.48094 81.2257C9.32491 81.0938 10.0483 80.6177 10.7355 80.1415C11.7069 79.5455 12.6525 78.8416 13.2674 77.8671C13.6842 77.0793 14.1045 76.2589 14.1751 75.358C14.5489 72.2906 14.4748 69.1958 14.5609 66.1147C14.5523 62.7355 14.5316 59.3581 14.4386 55.9807C13.4793 55.508 12.5182 55.0336 11.5933 54.5027C11.0766 54.4736 10.6201 54.2201 10.1913 53.9546C9.63838 53.6087 9.02349 53.3757 8.46717 53.0349C8.0693 52.8825 7.62837 52.826 7.28562 52.5536C6.71207 52.1409 6.05413 51.8617 5.48574 51.4438C4.63662 51.0002 4.13369 50.161 3.49296 49.4914C3.15366 49.082 2.85741 48.6402 2.51294 48.2326C2.1788 47.2717 1.37101 46.5798 1.00931 45.6344C0.71995 44.8123 0.242854 44.0673 0 43.2264C1.23322 42.5876 2.54566 41.9796 3.95284 41.9162C5.57359 41.5445 7.20467 41.214 8.85125 40.9776C9.35591 40.9588 9.20262 41.5411 9.01143 41.8066C8.40172 42.156 7.75066 42.4385 7.17539 42.8479C6.73619 43.163 6.26426 43.4679 5.71826 43.5518C4.87258 44.1324 3.96317 44.6154 3.16744 45.2713C3.52224 45.5967 3.86844 45.9324 4.18019 46.3006C4.52466 46.7203 5.1206 46.7699 5.49263 47.1536C6.40549 48.0356 7.6611 48.4055 8.67729 49.142C9.12339 49.4623 9.61771 49.7243 10.1465 49.8836C11.5158 50.4094 12.7266 51.6939 14.2974 51.4216C14.3422 48.3233 14.2233 45.2268 14.1338 42.1303C13.9185 35.396 13.6481 28.6635 13.3742 21.9326C13.2605 20.0983 13.3346 18.2606 13.3087 16.4263C13.3156 15.9125 13.0435 15.4587 12.7869 15.0322C12.0635 13.6741 10.6735 12.8246 9.28874 12.2508C9.40069 11.8329 9.74 11.4818 10.193 11.4767C13.0642 11.6788 15.9474 11.6103 18.8238 11.5589C22.377 11.4853 25.9268 11.3328 29.4783 11.2129C29.4594 11.5812 29.4284 11.9477 29.3853 12.3142C29.2303 12.3878 29.0753 12.4615 28.9203 12.5351C28.4639 13.1209 27.8955 13.6347 27.5527 14.2975C27.055 15.2309 27.3529 16.3047 27.241 17.3067C27.1669 21.5849 27.303 25.8615 27.2634 30.1398C27.2341 35.396 27.508 40.6471 27.6957 45.8982C27.7611 47.1142 27.7904 48.3336 27.9213 49.5462C28.7481 49.3544 29.5231 48.9913 30.2827 48.623C30.734 48.2411 31.385 48.3096 31.838 47.926C32.3633 47.4892 33.023 47.2529 33.5449 46.811C34.6885 46.5353 35.362 45.422 36.4918 45.1018C37.1239 44.5571 37.8404 44.1187 38.4794 43.5826C38.9772 43.3463 39.4044 42.9952 39.8298 42.6526C39.8453 38.4788 39.8315 34.305 39.8384 30.1312C39.673 23.7275 39.3251 17.3272 38.7826 10.944C38.7206 10.3652 38.4295 9.84964 38.2418 9.30672C37.7526 9.03612 37.2996 8.70557 36.7932 8.46408C36.6244 8.10271 36.044 7.56492 36.559 7.24808C38.4863 7.67796 40.4602 7.47929 42.4151 7.58205C45.0623 7.72249 47.7079 7.51354 50.3552 7.53067C51.9019 7.45702 53.4399 7.21725 54.9866 7.16073C55.0659 7.21554 55.226 7.32515 55.307 7.37995C54.8661 7.93829 54.265 8.37502 53.9601 9.03783C53.4279 10.2727 52.7165 11.4236 52.2877 12.7047C51.8157 15.9862 51.8795 19.3139 51.8519 22.6211C51.8278 25.8752 51.8829 29.1276 51.9036 32.3817C51.9794 34.4866 51.9208 36.5949 52.0569 38.6981C53.8826 38.2716 55.7083 37.7766 57.5874 37.655C58.9842 37.3296 60.5585 37.4067 61.7349 38.3058C62.1431 38.3726 62.5409 38.5079 62.8734 38.7597C63.5003 39.2375 64.1979 39.6092 64.8885 39.9843C64.768 38.6981 64.5785 37.4187 64.6284 36.1239C64.253 32.5084 63.6984 28.9152 63.1541 25.322C63.0421 24.6746 63.1265 24.0135 63.049 23.3644C62.5582 20.0589 62.0793 16.7535 61.5988 13.448C61.4851 12.7903 61.5867 12.1172 61.4817 11.4596C61.0459 8.4401 60.6015 5.42407 60.1658 2.40461C60.0211 1.61164 59.9574 0.804968 59.9867 7.62939e-06H59.9867Z" fill="#AE0001"/>
</g>
<defs>
<clipPath id="clip0_1_37">
<rect width="99" height="108" fill="white"/>
</clipPath>
</defs>
</svg>
